<svg width="56" height="57" viewBox="0 0 56 57" fill="none" xmlns="http://www.w3.org/2000/svg">
<path d="M44.4738 11.2892C42.7522 11.2892 41.1718 10.3014 40.3815 8.77736L38.3495 4.68502C37.0512 2.11673 33.6644 0 30.7857 0H24.3226C21.4156 0 18.0288 2.11673 16.7305 4.68502L14.6985 8.77736C13.9082 10.3014 12.3278 11.2892 10.6062 11.2892C4.48176 11.2892 -0.3726 16.454 0.0225221 22.5502L1.49012 45.8624C1.82879 51.6763 4.96155 56.446 12.7511 56.446H42.3289C50.1184 56.446 53.223 51.6763 53.5899 45.8624L55.0575 22.5502C55.4526 16.454 50.5982 11.2892 44.4738 11.2892ZM23.3066 14.8171H31.7735C32.9306 14.8171 33.8902 15.7767 33.8902 16.9338C33.8902 18.0909 32.9306 19.0505 31.7735 19.0505H23.3066C22.1494 19.0505 21.1898 18.0909 21.1898 16.9338C21.1898 15.7767 22.1494 14.8171 23.3066 14.8171ZM27.54 45.4955C22.2906 45.4955 18.0006 41.2338 18.0006 35.9561C18.0006 30.6784 22.2623 26.4167 27.54 26.4167C32.8177 26.4167 37.0794 30.6784 37.0794 35.9561C37.0794 41.2338 32.7895 45.4955 27.54 45.4955Z" fill="#292D32"/>
</svg>
