<svg width="56" height="56" viewBox="0 0 56 56" fill="none" xmlns="http://www.w3.org/2000/svg">
<path d="M54.4396 0.630499C53.6133 -0.195803 52.2637 -0.195803 51.4374 0.630499L0.619726 51.4756C-0.206575 52.3019 -0.206575 53.6515 0.619726 54.4778C1.03288 54.8634 1.5562 55.0837 2.10707 55.0837C2.65794 55.0837 3.18126 54.8634 3.59441 54.4502L54.4396 3.60518C55.2935 2.77888 55.2935 1.4568 54.4396 0.630499Z" fill="#292D32"/>
<path d="M35.2959 4.189V19.7786L19.7614 35.3131V31.0714H11.2505C7.39441 31.0714 6.32022 28.7027 8.88175 25.8106L27.5286 4.60215L29.7321 2.0957C32.7894 -1.37476 35.2959 -0.438287 35.2959 4.189Z" fill="#292D32"/>
<path d="M46.1733 29.275L27.5264 50.4834L25.3229 52.9899C22.2656 56.4604 19.7592 55.5239 19.7592 50.8966V43.5701L39.315 24.0145H43.8046C47.6606 24.0145 48.7348 26.383 46.1733 29.275Z" fill="#292D32"/>
</svg>
