<svg width="61" height="62" viewBox="0 0 61 62" fill="none" xmlns="http://www.w3.org/2000/svg">
<path d="M4.49012 48.8624C4.82879 54.6763 7.96155 59.446 15.7511 59.446H45.3289C53.1184 59.446 56.223 54.6763 56.5899 48.8624L58.0575 25.5502C58.4526 19.454 53.5982 14.2892 47.4738 14.2892C45.7522 14.2892 44.1718 13.3014 43.3815 11.7774L41.3495 7.68502C40.0512 5.11673 36.6644 3 33.7857 3H27.3226C24.4156 3 21.0288 5.11673 19.7305 7.68502L17.6985 11.7774C16.9082 13.3014 15.3278 14.2892 13.6062 14.2892C7.48176 14.2892 2.6274 19.454 3.02252 25.5502L3.75632 37.037" stroke="#292D32" stroke-width="4.23345" stroke-linecap="round" stroke-linejoin="round"/>
<path d="M26.306 19.9338H34.7729" stroke="#292D32" stroke-width="4.23345" stroke-linecap="round" stroke-linejoin="round"/>
<path d="M30.5395 48.1568C35.5914 48.1568 39.712 44.0363 39.712 38.9843C39.712 33.9324 35.5914 29.8119 30.5395 29.8119C25.4876 29.8119 21.367 33.9324 21.367 38.9843C21.367 44.0363 25.4876 48.1568 30.5395 48.1568Z" stroke="#292D32" stroke-width="4.23345" stroke-linecap="round" stroke-linejoin="round"/>
</svg>
