<svg width="56" height="56" viewBox="0 0 56 56" fill="none" xmlns="http://www.w3.org/2000/svg">
<path d="M32.6669 28.6956H19.8564C18.8059 28.6956 17.9348 27.8245 17.9348 26.7741C17.9348 25.7236 18.8059 24.8525 19.8564 24.8525H32.6669C33.7174 24.8525 34.5885 25.7236 34.5885 26.7741C34.5885 27.8245 33.7174 28.6956 32.6669 28.6956Z" fill="#292D32"/>
<path d="M26.2616 52.5233C11.7857 52.5233 0 40.7376 0 26.2616C0 11.7857 11.7857 0 26.2616 0C40.7376 0 52.5233 11.7857 52.5233 26.2616C52.5233 40.7376 40.7376 52.5233 26.2616 52.5233ZM26.2616 3.84317C13.8866 3.84317 3.84317 13.9123 3.84317 26.2616C3.84317 38.611 13.8866 48.6801 26.2616 48.6801C38.6366 48.6801 48.6801 38.611 48.6801 26.2616C48.6801 13.9123 38.6366 3.84317 26.2616 3.84317Z" fill="#292D32"/>
<path d="M53.1648 55.0851C52.678 55.0851 52.1912 54.9058 51.8069 54.5215L46.6827 49.3972C45.9397 48.6542 45.9397 47.4244 46.6827 46.6814C47.4257 45.9384 48.6555 45.9384 49.3985 46.6814L54.5227 51.8056C55.2658 52.5486 55.2658 53.7784 54.5227 54.5215C54.1384 54.9058 53.6516 55.0851 53.1648 55.0851Z" fill="#292D32"/>
</svg>
